<?xml version="1.0" encoding="UTF-8" standalone="no"?>
<svg
   width="61.000004"
   height="64.999962"
   viewBox="0 0 61.000005 64.999962"
   fill="none"
   version="1.1"
   id="svg2652"
   sodipodi:docname="logo.svg"
   inkscape:version="1.2.2 (b0a8486541, 2022-12-01)"
   xmlns:inkscape="http://www.inkscape.org/namespaces/inkscape"
   xmlns:sodipodi="http://sodipodi.sourceforge.net/DTD/sodipodi-0.dtd"
   xmlns:xlink="http://www.w3.org/1999/xlink"
   xmlns="http://www.w3.org/2000/svg"
   xmlns:svg="http://www.w3.org/2000/svg">
  <sodipodi:namedview
     id="namedview13"
     pagecolor="#ffffff"
     bordercolor="#666666"
     borderopacity="1.0"
     inkscape:showpageshadow="2"
     inkscape:pageopacity="0.0"
     inkscape:pagecheckerboard="0"
     inkscape:deskcolor="#d1d1d1"
     showgrid="false"
     inkscape:zoom="7.3023766"
     inkscape:cx="28.209994"
     inkscape:cy="15.542885"
     inkscape:window-width="2311"
     inkscape:window-height="1311"
     inkscape:window-x="35"
     inkscape:window-y="32"
     inkscape:window-maximized="0"
     inkscape:current-layer="svg2652" />
  <defs
     id="defs2656" />
  <symbol
     id="logo-symbol-wordmark"
     transform="translate(0,-0.0130005)"
     style="display:inline">
    <defs
       id="defs2647">
      <linearGradient
         id="paint0_linear_89_11"
         x1="30.5"
         y1="0.0130005"
         x2="30.5"
         y2="65.013"
         gradientUnits="userSpaceOnUse">
        <stop
           stop-color="#6364FF"
           id="stop2642"
           offset="0"
           style="stop-color:#00f595;stop-opacity:1;" />
        <stop
           offset="1"
           stop-color="#563ACC"
           id="stop2644"
           style="stop-color:#64a22a;stop-opacity:1;" />
      </linearGradient>
    </defs>
  </symbol>
  <path
     d="M 60.7539,14.4034 C 59.8143,7.41942 53.7273,1.91557 46.5117,0.849066 45.2943,0.668854 40.6819,0.0130005 29.9973,0.0130005 H 29.9175 C 19.2299,0.0130005 16.937,0.668854 15.7196,0.849066 8.70488,1.88602 2.29885,6.83152 0.744617,13.8982 -0.00294988,17.3784 -0.0827298,21.2367 0.0561464,24.7759 0.254119,29.8514 0.292531,34.918 0.753482,39.9728 c 0.318668,3.3577 0.874578,6.6886 1.663558,9.9678 1.47741,6.0563 7.45795,11.0963 13.31736,13.1525 6.2733,2.1443 13.0198,2.5003 19.484,1.0281 0.7111,-0.1654 1.4134,-0.3574 2.1068,-0.5761 1.5719,-0.4992 3.360711,-1.133817 4.7661,-2.0384 2.349757,-1.512429 2.575387,-5.87471 -0.1152,-5.1553 -4.113588,1.099892 -8.3856,1.485 -12.6437,1.4772 -7.3279,0 -9.2988,-3.4772 -9.8631,-4.9248 -3.237174,-8.397195 5.065552,-2.617905 11.7572,-2.5496 1.0075,0 2.0122,0 3.0198,-0.0266 4.2135,-0.1182 8.6546,-0.3338 12.8002,-1.1433 0.1034,-0.0207 0.2069,-0.0384 0.2955,-0.065 6.539,-1.2556 12.7618,-5.1966 13.3942,-15.1762 0.0236,-0.3929 0.0827,-4.1153 0.0827,-4.523 0.0029,-1.3856 0.4462,-9.829 -0.065,-15.0167 z"
     fill="url(#paint0_linear_89_11)"
     id="path2636"
     style="display:inline;fill:url(#paint0_linear_89_11)"
     transform="translate(0,-0.0130005)" />
  <path
     id="path481"
     style="font-weight:900;font-size:40px;line-height:1.25;font-family:Roboto;-inkscape-font-specification:'Roboto Heavy';display:inline;fill:#ffffff;stroke-width:1.00984"
     d="M 18.808595,9.9707031 V 38.408203 H 25.79883 V 28.369141 h 3.785156 l 5.117187,10.039062 h 7.490235 V 38.115234 L 36.13672,26.650391 c 1.739363,-0.807291 3.012337,-1.861982 3.822266,-3.164063 0.823213,-1.302081 1.236328,-2.942712 1.236328,-4.921875 0,-2.734369 -0.969654,-4.850264 -2.908203,-6.347656 -1.938532,-1.497393 -4.627506,-2.2460939 -8.066406,-2.2460939 z m 6.990235,5.2929689 h 4.421875 c 1.314484,0 2.311126,0.351564 2.988281,1.054687 0.677154,0.690104 1.015625,1.647139 1.015625,2.871094 0,1.223956 -0.338471,2.180992 -1.015625,2.871094 -0.663886,0.677081 -1.660509,1.015625 -2.988281,1.015625 H 25.79883 Z" />
  <use
     xlink:href="#logo-symbol-wordmark"
     id="use2650"
     style="display:inline;fill:none;fill-opacity:1;stroke:none" />
</svg>
