<?xml version="1.0" encoding="UTF-8" standalone="no"?>
<svg
   width="126.26948"
   height="64.999962"
   viewBox="0 0 126.26948 64.999962"
   fill="none"
   version="1.1"
   id="svg2652"
   sodipodi:docname="logo-symbol-wordmark.svg"
   inkscape:version="1.2.2 (b0a8486541, 2022-12-01)"
   xmlns:inkscape="http://www.inkscape.org/namespaces/inkscape"
   xmlns:sodipodi="http://sodipodi.sourceforge.net/DTD/sodipodi-0.dtd"
   xmlns:xlink="http://www.w3.org/1999/xlink"
   xmlns="http://www.w3.org/2000/svg"
   xmlns:svg="http://www.w3.org/2000/svg">
  <sodipodi:namedview
     id="namedview13"
     pagecolor="#ffffff"
     bordercolor="#666666"
     borderopacity="1.0"
     inkscape:showpageshadow="2"
     inkscape:pageopacity="0.0"
     inkscape:pagecheckerboard="0"
     inkscape:deskcolor="#d1d1d1"
     showgrid="false"
     inkscape:zoom="10.32712"
     inkscape:cx="52.386338"
     inkscape:cy="33.84293"
     inkscape:window-width="2709"
     inkscape:window-height="1311"
     inkscape:window-x="35"
     inkscape:window-y="32"
     inkscape:window-maximized="0"
     inkscape:current-layer="logo-symbol-wordmark" />
  <defs
     id="defs2656" />
  <symbol
     id="logo-symbol-wordmark"
     transform="translate(0,-0.0130005)"
     style="display:inline">
    <defs
       id="defs2647">
      <linearGradient
         id="paint0_linear_89_11"
         x1="30.5"
         y1="0.0130005"
         x2="30.5"
         y2="65.013"
         gradientUnits="userSpaceOnUse">
        <stop
           stop-color="#6364FF"
           id="stop2642"
           offset="0"
           style="stop-color:#00f595;stop-opacity:1;" />
        <stop
           offset="1"
           stop-color="#563ACC"
           id="stop2644"
           style="stop-color:#64a22a;stop-opacity:1;" />
      </linearGradient>
    </defs>
    <path
       d="M 60.7539,14.4034 C 59.8143,7.41942 53.7273,1.91557 46.5117,0.849066 45.2943,0.668854 40.6819,0.0130005 29.9973,0.0130005 H 29.9175 C 19.2299,0.0130005 16.937,0.668854 15.7196,0.849066 8.70488,1.88602 2.29885,6.83152 0.744617,13.8982 -0.00294988,17.3784 -0.0827298,21.2367 0.0561464,24.7759 0.254119,29.8514 0.292531,34.918 0.753482,39.9728 c 0.318668,3.3577 0.874578,6.6886 1.663558,9.9678 1.47741,6.0563 7.45795,11.0963 13.31736,13.1525 6.2733,2.1443 13.0198,2.5003 19.484,1.0281 0.7111,-0.1654 1.4134,-0.3574 2.1068,-0.5761 1.5719,-0.4992 3.360711,-1.133817 4.7661,-2.0384 2.349757,-1.512429 2.575387,-5.87471 -0.1152,-5.1553 -4.113588,1.099892 -8.3856,1.485 -12.6437,1.4772 -7.3279,0 -9.2988,-3.4772 -9.8631,-4.9248 -3.237174,-8.397195 5.065552,-2.617905 11.7572,-2.5496 1.0075,0 2.0122,0 3.0198,-0.0266 4.2135,-0.1182 8.6546,-0.3338 12.8002,-1.1433 0.1034,-0.0207 0.2069,-0.0384 0.2955,-0.065 6.539,-1.2556 12.7618,-5.1966 13.3942,-15.1762 0.0236,-0.3929 0.0827,-4.1153 0.0827,-4.523 0.0029,-1.3856 0.4462,-9.829 -0.065,-15.0167 z"
       fill="url(#paint0_linear_89_11)"
       id="path2636"
       style="display:inline;fill:url(#paint0_linear_89_11)" />
    <path
       d="m 12.3442,18.3034 c 0,-2.0366 1.6335,-3.684 3.6528,-3.684 2.0193,0 3.6527,1.6474 3.6527,3.684 0,2.0366 -1.6334,3.684 -3.6527,3.684 -2.0193,0 -3.6528,-1.6474 -3.6528,-3.684 z"
       fill="currentColor"
       id="path2638" />
    <path
       id="path2854"
       style="font-weight:900;font-size:40px;line-height:1.25;font-family:Roboto;-inkscape-font-specification:'Roboto Heavy';fill:#000000;stroke-width:1.00984"
       d="m 87.073896,7.9989995 c -2.615705,0 -4.647176,0.6640636 -6.094458,1.992187 -1.447261,1.3281245 -2.170885,3.1966165 -2.170885,5.6054695 v 1.679687 h -3.126894 v 4.570312 h 3.126894 v 16.562501 h 6.731769 V 21.846655 H 89.7427 V 17.276342 H 85.540322 V 15.65525 c 0,-1.71875 1.015749,-2.578125 3.047238,-2.578125 0.690421,0 1.241442,0.05859 1.653054,0.175781 L 90.220734,8.4091557 C 89.078862,8.1357185 88.029917,7.9989995 87.073926,7.9989995 Z m 14.778044,0 c -2.615692,0 -4.647181,0.6640636 -6.094443,1.992187 -1.44727,1.3281245 -2.170907,3.1966165 -2.170907,5.6054695 v 1.679687 h -3.126898 v 4.570312 h 3.126898 v 16.562501 h 6.73178 V 21.846655 h 4.20244 v -4.570312 h -4.20244 V 15.65525 c 0,-1.71875 1.01569,-2.578125 3.0472,-2.578125 0.6904,0 1.2414,0.05859 1.65303,0.175781 L 104.9991,8.4091557 C 103.85687,8.1357185 102.8079,7.9989995 101.85197,7.9989995 Z M 28.021484,9.9716555 V 38.409156 h 6.990697 V 28.370092 h 3.784121 l 5.118538,10.039064 h 7.488613 V 38.116187 L 45.348835,26.651342 c 1.739364,-0.807291 3.014032,-1.86198 3.823962,-3.164062 0.823214,-1.302082 1.234824,-2.94271 1.234824,-4.921875 0,-2.734372 -0.969261,-4.850262 -2.907812,-6.347656 -1.938534,-1.497394 -4.62727,-2.2460935 -8.066174,-2.2460935 z m 6.990697,5.2929695 h 4.421454 c 1.314486,0 2.31032,0.351563 2.987476,1.054687 0.677155,0.690104 1.015743,1.647137 1.015743,2.871093 0,1.223957 -0.338588,2.180991 -1.015743,2.871094 -0.663887,0.677082 -1.659702,1.015625 -2.987476,1.015625 h -4.421454 z m 19.19949,2.011718 v 13.691406 c 0,2.526039 0.604136,4.466148 1.812405,5.820313 1.221537,1.341144 3.014034,2.011719 5.377461,2.011719 2.41652,0 4.335148,-0.891929 5.755855,-2.675781 l 0.199169,2.285156 h 6.293611 V 17.276342 h -6.751686 v 14.82422 c -0.6506,1.080728 -1.74601,1.621094 -3.286222,1.621094 -1.792492,0 -2.688731,-0.90495 -2.688731,-2.714844 v -13.73047 z m 50.707369,0 7.48856,21.328126 -0.53761,1.40625 c -0.23913,0.690103 -0.61075,1.165363 -1.11541,1.425781 -0.49128,0.273437 -1.20828,0.410156 -2.151,0.410156 h -0.87628 v 4.707031 c 0.96933,0.260417 1.89214,0.390625 2.76842,0.390625 3.15997,0 5.36418,-1.36719 6.61228,-4.101562 l 0.37831,-0.898438 8.78317,-24.667969 h -7.1897 l -3.58499,11.914062 -3.40578,-11.914062 z"
       transform="translate(0,0.0130005)" />
  </symbol>
  <use
     xlink:href="#logo-symbol-wordmark"
     id="use2650"
     style="display:inline;fill:none;fill-opacity:1;stroke:none" />
</svg>
